# xmcd CD database file
#
# Track frame offsets:
#	150
#	2899
#	17482
#	32065
#	48787
#	65509
#	84778
#	104047
#	124711
#	145375
#	161647
#	177919
#	188614
#
# Disc length: 2652 seconds
#
# Revision: 1
# Processed by: cddbd v1.5.2PL0 Copyright (c) Steve Scherf et al.
# Submitted via: CDex 1.51
#
DISCID=a20a5a0d
DTITLE=Allen Vizzutti - Jazz Adventures
DYEAR=1900
DGENRE=Jazz
TTITLE0=Tuning Note C
TTITLE1=The Shy Clown (With Solo)
TTITLE2=The Shy Clown
TTITLE3=Wooden Snow (With Solo)
TTITLE4=Wooden Snow
TTITLE5=Sensual (With Solo)
TTITLE6=Sensual
TTITLE7=E-Motion (With Solo)
TTITLE8=E-Motion
TTITLE9=Birthday Blues (With Solo)
TTITLE10=Birthday Blues
TTITLE11=Miss Tic Tac (With Solo)
TTITLE12=Miss Tic Tac
EXTD=
EXTT0=
EXTT1=
EXTT2=
EXTT3=
EXTT4=
EXTT5=
EXTT6=
EXTT7=
EXTT8=
EXTT9=
EXTT10=
EXTT11=
EXTT12=
PLAYORDER=
